<svg id="Layer_1" data-name="Layer 1" xmlns="http://www.w3.org/2000/svg" viewBox="0 0 295.41 135.09"><title>as-logo</title><path d="M196.45,186.43a7.83,7.83,0,0,1-5.55-2.64,28.11,28.11,0,0,1-6.27-12.08,122.94,122.94,0,0,1-2.84-14.06,72.57,72.57,0,0,0-1.65-8.12c-.57-2.06-1.34-3.1-2.31-3.1a32.74,32.74,0,0,0-10.16,1.32q-4,1.32-5.28,7a43.09,43.09,0,0,0-.66,4.88q-1.46,10.81-3,11.88a3.82,3.82,0,0,1-2.37.79,7.69,7.69,0,0,1-4.36-1.71q-4.49-3-4.49-7.53a13.69,13.69,0,0,1,1-4.75,12.65,12.65,0,0,0,1-4A1.28,1.28,0,0,0,148,152.9a17.33,17.33,0,0,0-5,1.65,18,18,0,0,1-4.89,1.65c-1.32,0-2.61-.77-3.89-2.31a7.94,7.94,0,0,1-1.92-5.21c0-2,1.13-3.59,3.37-4.69a36,36,0,0,1,8.78-2.71q9.24-2,12.41-4.88l27.72-57.95q3.56-7,10.56-7a19.19,19.19,0,0,1,5.28.8c3.08,1,4.62,2.64,4.62,4.75a23.43,23.43,0,0,1-1.32,6.86q-10.31,38-10.3,61.51,0,24.42,6.2,34.85a7.1,7.1,0,0,1,1.32,3,2.82,2.82,0,0,1-1.45,2.11A5.12,5.12,0,0,1,196.45,186.43Zm-23.37-50.16a15.81,15.81,0,0,0,3.17-.4q4.75-1.05,5.28-4.62l.66-4.22q2.37-12.28,2.38-17.43c0-1.49-.18-2.24-.53-2.24q-1.18,0-8.85,15.44-4.74,9.9-4.75,12.41C170.44,135.92,171.32,136.27,173.08,136.27Z" transform="translate(-132.29 -71.45)"/><path d="M242.78,162.27a6,6,0,0,1-1.85-.26q-10.43-3.3-10.43-15.58c0-2.9-.31-4.36-.92-4.36q-.14,0-6.47,8.06-3.57,4.62-6.86,8.38t-6.74,3.76a10.1,10.1,0,0,1-5.14-1.45,9.92,9.92,0,0,1-5.42-9.24,14.86,14.86,0,0,1,.4-3.3q3.3-16.5,15.84-33,5.15-6.73,10.69-6.73a9.81,9.81,0,0,1,6.21,2.17c1.84,1.46,2.77,2.71,2.77,3.77a5,5,0,0,1-.53,2.5c-1,1.85-2,2.78-3.17,2.78a5.44,5.44,0,0,1-2.9-.66,5.4,5.4,0,0,0-1.85-.8c-.53,0-1.23.62-2.11,1.85q-5.69,7.66-11.35,23a9.09,9.09,0,0,0-.8,2.77c0,.44.14.66.4.66q2,0,11.35-11.75,11.88-14.91,14.52-15.7a9.57,9.57,0,0,1,2.51-.4,4.9,4.9,0,0,1,1.72.26q3.69,2,3.69,7.53a19.14,19.14,0,0,1-.66,4.88,72,72,0,0,0-2.37,16.9,25.22,25.22,0,0,0,2.24,10.43,4.11,4.11,0,0,1,.53,1.71C246.08,161.65,245,162.27,242.78,162.27Z" transform="translate(-132.29 -71.45)"/><path d="M258.09,165.57a9.52,9.52,0,0,1-6.6-2.51,5.33,5.33,0,0,1-1.45-4q3-26.92,5.81-44.48c.44-2.46,1.76-3.7,4-3.7q8,0,8.05,7.26a13.52,13.52,0,0,1-.66,3.57,18.3,18.3,0,0,0-.79,5c0,1.32.17,2,.53,2s.57-.35.92-1.05q2.89-6.34,10.82-9.77a11.68,11.68,0,0,1,5-1.19,4.27,4.27,0,0,1,3.7,2.38,4,4,0,0,1,.79,2.11c0,1-1,2.07-3,3a8.48,8.48,0,0,0-1.32.8q-15.7,12-20.59,34.32Q261.78,165.57,258.09,165.57Z" transform="translate(-132.29 -71.45)"/><path d="M294.92,165.83a15.45,15.45,0,0,1-6.93-2.11q-4-2.11-6.4-8.05a19.54,19.54,0,0,1-1.32-7.39q0-6.34,3.3-17a91.9,91.9,0,0,1,7.65-18.35q2.64-4.62,7.13-4.62,7.39,0,8.45,6.6a5.55,5.55,0,0,0,1.85,2.77q5.53,5.3,5.54,15.58c0,.35-.07,2.22-.2,5.61s-1.52,8-4.16,13.93-6.11,9.9-10.42,12A10.55,10.55,0,0,1,294.92,165.83Zm-2.11-11.22q4.08-2.24,7.12-8.44a37.39,37.39,0,0,0,3.83-16.24,18.19,18.19,0,0,0-1.85-8.45c-1.84,1.59-3.61,4.54-5.28,8.85q-4.35,11.35-4.35,20.06A14.22,14.22,0,0,0,292.81,154.61Z" transform="translate(-132.29 -71.45)"/><path d="M327,165a8.36,8.36,0,0,1-3.56-.79c-4.75-1.94-7.18-4.88-7.26-8.84a13.4,13.4,0,0,1,.26-2.91q3.82-16.75,7.39-33.39c.71-3.44,2.2-5.19,4.49-5.28a8.23,8.23,0,0,1,2.25.39q5.4,1.73,5.54,5.68a13.25,13.25,0,0,1-.66,3.43q-2.78,8.71-2.77,12.28c0,1,.17,1.45.53,1.45s1.27-.88,2.5-2.64q8.71-12.28,16-21.12,3.69-4.62,7.39-4.75a7.68,7.68,0,0,1,3.83,1c2.9,1.68,4.39,4.4,4.48,8.19A14.26,14.26,0,0,1,367,121q-6.08,25-6.07,32.34c0,4.49.3,7.05.92,7.66a4.5,4.5,0,0,1,.26,1.45,2,2,0,0,1-1.05,1.65,3.87,3.87,0,0,1-2.25.73,7.48,7.48,0,0,1-5-2.11q-5-4.23-5.28-11.62,0-10,.26-12.47c.18-1.63.27-2.8.27-3.5,0-.53-.09-.79-.27-.79q-.66,0-14.52,24.81Q331,165,327,165Z" transform="translate(-132.29 -71.45)"/><path d="M372.13,110.92a3.11,3.11,0,0,1-2.5-1.32,2.5,2.5,0,0,1-.4-1.32,4.81,4.81,0,0,1,.92-2.24q4.75-6.35,7.4-17.29a6.54,6.54,0,0,0-.6-2.58,6.64,6.64,0,0,1-.59-2.57c0-1.14.92-1.72,2.77-1.72q9.38,0,10.43,9.51,0,5.53-4.62,11.48Q378.73,110.92,372.13,110.92Z" transform="translate(-132.29 -71.45)"/><path d="M407.51,165.31q-5,0-5-3.3c0-1.15,1.63-3.3,4.89-6.47q6.6-6.34,6.6-9.77a6,6,0,0,0-.66-2.11c-.44-1-2.77-1.8-7-2.51q-10.56-1.59-10.56-11.88,0-5,3.17-15.05,5.42-17.55,13.46-17.55a7.56,7.56,0,0,1,2.38.39q5.42,1.72,5.41,4a7.6,7.6,0,0,1-2,4.49q-9.9,12.27-9.9,25.08.13,4.49,6.73,5.28,12.41,1.32,12.68,7.52v3.7q0,3.43-6.34,9.9Q414.11,164.25,407.51,165.31Z" transform="translate(-132.29 -71.45)"/><path d="M220.75,194.61a3.38,3.38,0,0,0-2.12.61,2.08,2.08,0,0,0-.77,1.72c0,.95.64,1.65,1.92,2.11l2.41.83a4.8,4.8,0,0,1,2.15,1.31,3.24,3.24,0,0,1-.51,4.45,5.83,5.83,0,0,1-7.62-1.2.51.51,0,0,1-.07-.17c0-.07.06-.14.17-.22l.44-.31a.31.31,0,0,1,.21-.08.22.22,0,0,1,.19.1,5.2,5.2,0,0,0,1.47,1.36,4.11,4.11,0,0,0,2,.41,4.15,4.15,0,0,0,2.31-.56,1.93,1.93,0,0,0,.83-1.72,1.79,1.79,0,0,0-.43-1.23,4,4,0,0,0-1.63-.93l-2.56-.94a3.72,3.72,0,0,1-1.91-1.29,3.09,3.09,0,0,1-.59-1.82,3.2,3.2,0,0,1,.52-1.83,3.29,3.29,0,0,1,1.46-1.2,5.28,5.28,0,0,1,2.17-.42,5,5,0,0,1,3.86,1.67.37.37,0,0,1,.06.15.22.22,0,0,1-.06.14L224,196a.14.14,0,0,1-.1.05s-.1,0-.17-.14A3.71,3.71,0,0,0,220.75,194.61Z" transform="translate(-132.29 -71.45)"/><path d="M241,206.29q0,.09-.12.09h-1.09c-.13,0-.22,0-.25-.12l-4-6.53s-.07-.07-.11-.07a.21.21,0,0,0-.13.09l-2.08,2.32a.92.92,0,0,0-.11.15.63.63,0,0,0,0,.16v3.79a.19.19,0,0,1-.22.21h-.84a.26.26,0,0,1-.17,0,.22.22,0,0,1,0-.16V193.93a.15.15,0,0,1,.17-.17H233c.11,0,.16.06.16.17v6.55q0,.18.15,0l6-6.63a.44.44,0,0,1,.13-.09.35.35,0,0,1,.16,0h.95q.12,0,.15.06a.13.13,0,0,1,0,.13l-4.14,4.59a.12.12,0,0,0,0,.08.14.14,0,0,0,0,.09l4.59,7.48A.26.26,0,0,1,241,206.29Z" transform="translate(-132.29 -71.45)"/><path d="M247.69,193.8a.21.21,0,0,1,.14,0h7.39c.11,0,.16.05.16.15l0,.7a.13.13,0,0,1-.17.17h-6.07a.22.22,0,0,0-.16,0s0,.07,0,.15v4.37c0,.07,0,.11,0,.13a.21.21,0,0,0,.15,0h4.6a.12.12,0,0,1,.15.15v.71c0,.06,0,.1,0,.11a.17.17,0,0,1-.12,0h-4.62a.23.23,0,0,0-.13,0,.18.18,0,0,0,0,.14v4.51a.21.21,0,0,0,0,.13.21.21,0,0,0,.14,0h6.34a.26.26,0,0,1,.14,0,.14.14,0,0,1,.05.13v.71a.15.15,0,0,1-.17.16h-7.6a.2.2,0,0,1-.16,0,.22.22,0,0,1-.05-.16V194A.25.25,0,0,1,247.69,193.8Z" transform="translate(-132.29 -71.45)"/><path d="M261.28,193.93a.15.15,0,0,1,.17-.17h9a.15.15,0,0,1,.17.17v.7c0,.1,0,.15-.17.15H266.9a.21.21,0,0,0-.13,0s0,.06,0,.12v11.24a.22.22,0,0,1,0,.16.2.2,0,0,1-.14,0h-.92a.21.21,0,0,1-.15,0,.28.28,0,0,1,0-.16V194.93c0-.06,0-.11,0-.12a.22.22,0,0,0-.14,0h-3.82c-.12,0-.17-.05-.17-.15Z" transform="translate(-132.29 -71.45)"/><path d="M282.93,194.07a4.83,4.83,0,0,1,1.64,1.26,3.34,3.34,0,0,1,.78,1.7l0,.08c0,.07-.05.1-.14.1l-1,.09h-.05a.08.08,0,0,1-.07,0,.21.21,0,0,1,0-.12A3.23,3.23,0,0,0,283,195.3a3.18,3.18,0,0,0-2.06-.69A3.37,3.37,0,0,0,278,196a6.93,6.93,0,0,0-1,4.09,6.65,6.65,0,0,0,1,4,3.49,3.49,0,0,0,3,1.38,3.41,3.41,0,0,0,2.09-.61,4.22,4.22,0,0,0,1.33-1.9s.07-.07.15-.06l.84.23c.05,0,.08.08.07.18a4.54,4.54,0,0,1-2.48,2.78,4.91,4.91,0,0,1-2.08.44,5.06,5.06,0,0,1-2.84-.78,4.91,4.91,0,0,1-1.82-2.22,8.69,8.69,0,0,1-.63-3.46,9,9,0,0,1,.62-3.49,4.69,4.69,0,0,1,4.6-3A4.75,4.75,0,0,1,282.93,194.07Z" transform="translate(-132.29 -71.45)"/><path d="M293.64,200.34a.13.13,0,0,0-.1,0,.17.17,0,0,0,0,.1v5.69a.19.19,0,0,1-.22.21h-.85a.19.19,0,0,1-.21-.21V194a.25.25,0,0,1,0-.17.21.21,0,0,1,.14,0h.92a.18.18,0,0,1,.13,0,.25.25,0,0,1,0,.17v5.15c0,.08,0,.13,0,.15a.28.28,0,0,0,.15,0h6a.15.15,0,0,0,.17-.17V194c0-.13,0-.19.15-.19h.94a.23.23,0,0,1,.14,0,.25.25,0,0,1,0,.17v12.2c0,.14-.06.21-.2.21h-.85c-.15,0-.22-.07-.22-.21v-5.68a.13.13,0,0,0-.15-.15Z" transform="translate(-132.29 -71.45)"/><path d="M308.74,206.21V194a.27.27,0,0,1,0-.17.22.22,0,0,1,.16-.05h3.74a5.88,5.88,0,0,1,3.41.84,2.78,2.78,0,0,1,1.2,2.43,2.83,2.83,0,0,1-2.23,2.83s-.06,0-.06.08a.08.08,0,0,0,.06.08,3.29,3.29,0,0,1,1.88,1,3.2,3.2,0,0,1-.58,4.48,6.41,6.41,0,0,1-3.59.85h-3.86A.15.15,0,0,1,308.74,206.21Zm4.15-6.7a4.23,4.23,0,0,0,2.21-.54,1.94,1.94,0,0,0,.9-1.81,2.05,2.05,0,0,0-.89-1.81,4.32,4.32,0,0,0-2.46-.6h-2.43a.28.28,0,0,0-.15,0s-.05.07-.05.14v4.38q0,.21.15.21Zm-.21,5.88a5.21,5.21,0,0,0,2.72-.56,2,2,0,0,0,.87-1.8,2.15,2.15,0,0,0-.92-1.92,4.35,4.35,0,0,0-2.46-.62h-2.65c-.15,0-.22.07-.22.19v4.51c0,.13.05.2.15.2Z" transform="translate(-132.29 -71.45)"/><path d="M325.42,204.88a7.19,7.19,0,0,1-1.4-4.74,9,9,0,0,1,.64-3.55,4.87,4.87,0,0,1,1.84-2.23,5.15,5.15,0,0,1,2.83-.77,5.07,5.07,0,0,1,2.81.76,4.74,4.74,0,0,1,1.81,2.22,8.88,8.88,0,0,1,.63,3.53,7.29,7.29,0,0,1-1.39,4.77,5.34,5.34,0,0,1-7.77,0Zm6.85-.7a7,7,0,0,0,1-4.08c0-3.66-1.31-5.49-3.91-5.49s-4,1.83-4,5.49,1.32,5.41,4,5.41A3.38,3.38,0,0,0,332.27,204.18Z" transform="translate(-132.29 -71.45)"/><path d="M342.45,204.88a7.18,7.18,0,0,1-1.39-4.74,9,9,0,0,1,.63-3.55,4.87,4.87,0,0,1,1.84-2.23,5.15,5.15,0,0,1,2.83-.77,5,5,0,0,1,2.81.76,4.76,4.76,0,0,1,1.82,2.22,9.07,9.07,0,0,1,.62,3.53,7.24,7.24,0,0,1-1.39,4.77,5.34,5.34,0,0,1-7.77,0Zm6.85-.7a6.89,6.89,0,0,0,1-4.08q0-5.49-3.91-5.49t-4,5.49q0,5.42,4,5.41A3.36,3.36,0,0,0,349.3,204.18Z" transform="translate(-132.29 -71.45)"/><path d="M367.87,206.29q0,.09-.12.09h-1.09c-.14,0-.22,0-.26-.12l-4-6.53a.13.13,0,0,0-.1-.07.26.26,0,0,0-.14.09l-2.07,2.32a.55.55,0,0,0-.11.15.35.35,0,0,0,0,.16v3.79c0,.14-.07.21-.22.21h-.83a.25.25,0,0,1-.17,0,.22.22,0,0,1-.05-.16V193.93a.15.15,0,0,1,.17-.17h1c.1,0,.15.06.15.17v6.55c0,.12.05.13.16,0l5.95-6.63a.31.31,0,0,1,.12-.09.4.4,0,0,1,.17,0h1c.08,0,.13,0,.14.06s0,.08,0,.13l-4.15,4.59a.16.16,0,0,0,0,.08.19.19,0,0,0,0,.09l4.59,7.48A.34.34,0,0,1,367.87,206.29Z" transform="translate(-132.29 -71.45)"/></svg>